<svg width="64" height="64" viewBox="0 0 64 64" fill="none" xmlns="http://www.w3.org/2000/svg">
  <defs>
    <linearGradient id="gradient1" x1="0%" y1="0%" x2="100%" y2="100%">
      <stop offset="0%" style="stop-color:#3B82F6;stop-opacity:1" />
      <stop offset="50%" style="stop-color:#8B5CF6;stop-opacity:1" />
      <stop offset="100%" style="stop-color:#06B6D4;stop-opacity:1" />
    </linearGradient>
    <linearGradient id="gradient2" x1="0%" y1="0%" x2="100%" y2="100%">
      <stop offset="0%" style="stop-color:#F59E0B;stop-opacity:1" />
      <stop offset="100%" style="stop-color:#EF4444;stop-opacity:1" />
    </linearGradient>
    <filter id="glow">
      <feGaussianBlur stdDeviation="3" result="coloredBlur"/>
      <feMerge> 
        <feMergeNode in="coloredBlur"/>
        <feMergeNode in="SourceGraphic"/>
      </feMerge>
    </filter>
  </defs>
  
  <!-- Background Circle -->
  <circle cx="32" cy="32" r="30" fill="url(#gradient1)" filter="url(#glow)" opacity="0.9"/>
  
  <!-- Inner Circle -->
  <circle cx="32" cy="32" r="24" fill="none" stroke="white" stroke-width="2" opacity="0.3"/>
  
  <!-- Letter G -->
  <path d="M20 32 C20 24, 26 18, 34 18 C42 18, 48 24, 48 32 L42 32 L42 26 L34 26 C30 26, 26 30, 26 32 C26 36, 30 40, 34 40 C38 40, 42 36, 42 32 L48 32 C48 40, 42 46, 34 46 C26 46, 20 40, 20 32 Z" 
        fill="white" opacity="0.9"/>
  
  <!-- Letter S -->
  <path d="M36 20 C40 20, 44 22, 44 26 C44 28, 42 30, 40 30 L38 30 C38 28, 37 27, 36 27 C35 27, 34 28, 34 29 C34 30, 35 31, 38 32 C42 33, 44 35, 44 38 C44 42, 40 44, 36 44 C32 44, 28 42, 28 38 L30 38 C30 40, 32 42, 36 42 C38 42, 40 41, 40 39 C40 38, 39 37, 36 36 C32 35, 30 33, 30 30 C30 26, 32 24, 36 24 Z" 
        fill="url(#gradient2)" opacity="0.8"/>
  
  <!-- Code Brackets -->
  <path d="M12 20 L8 24 L12 28 M52 20 L56 24 L52 28" 
        stroke="white" stroke-width="2" fill="none" opacity="0.6"/>
  
  <!-- Dots for decoration -->
  <circle cx="16" cy="48" r="2" fill="white" opacity="0.7"/>
  <circle cx="48" cy="16" r="2" fill="white" opacity="0.7"/>
  <circle cx="20" cy="12" r="1.5" fill="url(#gradient2)" opacity="0.8"/>
  <circle cx="44" cy="52" r="1.5" fill="url(#gradient2)" opacity="0.8"/>
</svg>
