<svg width="32" height="32" viewBox="0 0 32 32" fill="none" xmlns="http://www.w3.org/2000/svg">
  <defs>
    <linearGradient id="gradient" x1="0%" y1="0%" x2="100%" y2="100%">
      <stop offset="0%" style="stop-color:#3B82F6;stop-opacity:1" />
      <stop offset="50%" style="stop-color:#8B5CF6;stop-opacity:1" />
      <stop offset="100%" style="stop-color:#06B6D4;stop-opacity:1" />
    </linearGradient>
  </defs>
  
  <!-- Background Circle -->
  <circle cx="16" cy="16" r="15" fill="url(#gradient)"/>
  
  <!-- Letter G -->
  <path d="M10 16 C10 12, 13 9, 17 9 C21 9, 24 12, 24 16 L21 16 L21 13 L17 13 C15 13, 13 15, 13 16 C13 18, 15 20, 17 20 C19 20, 21 18, 21 16 L24 16 C24 20, 21 23, 17 23 C13 23, 10 20, 10 16 Z" 
        fill="white"/>
</svg>
